<svg width="64" height="64" viewBox="0 0 64 64" fill="none" xmlns="http://www.w3.org/2000/svg">
  <path d="M18.6667 45.3333C22.3486 45.3333 25.3333 42.3486 25.3333 38.6667C25.3333 34.9848 22.3486 32 18.6667 32C14.9848 32 12 34.9848 12 38.6667C12 42.3486 14.9848 45.3333 18.6667 45.3333Z" stroke="#F9A95A" stroke-width="5.33333" stroke-linecap="round" stroke-linejoin="round" />
  <path d="M45.3333 45.3333C49.0152 45.3333 52 42.3486 52 38.6667C52 34.9848 49.0152 32 45.3333 32C41.6514 32 38.6667 34.9848 38.6667 38.6667C38.6667 42.3486 41.6514 45.3333 45.3333 45.3333Z" stroke="#F9A95A" stroke-width="5.33333" stroke-linecap="round" stroke-linejoin="round" />
  <path d="M32 18.6667C35.6819 18.6667 38.6667 15.6819 38.6667 12C38.6667 8.3181 35.6819 5.33334 32 5.33334C28.3181 5.33334 25.3333 8.3181 25.3333 12C25.3333 15.6819 28.3181 18.6667 32 18.6667Z" stroke="#F9A95A" stroke-width="5.33333" stroke-linecap="round" stroke-linejoin="round" />
  <path d="M32 58.6667C32 51.3029 26.0304 45.3333 18.6667 45.3333C11.3029 45.3333 5.33333 51.3029 5.33333 58.6667" stroke="#F9A95A" stroke-width="5.33333" stroke-linecap="round" stroke-linejoin="round" />
  <path d="M58.6667 58.6667C58.6667 51.3029 52.6971 45.3333 45.3333 45.3333C37.9696 45.3333 32 51.3029 32 58.6667" stroke="#F9A95A" stroke-width="5.33333" stroke-linecap="round" stroke-linejoin="round" />
  <path d="M45.3333 32C45.3333 24.6363 39.3637 18.6667 32 18.6667C24.6363 18.6667 18.6667 24.6363 18.6667 32" stroke="#F9A95A" stroke-width="5.33333" stroke-linecap="round" stroke-linejoin="round" />
</svg>